<?xml version="1.0" standalone="no"?>
<!DOCTYPE svg PUBLIC "-//W3C//DTD SVG 1.1//EN" "http://www.w3.org/Graphics/SVG/1.1/DTD/svg11.dtd" >
<svg xmlns="http://www.w3.org/2000/svg" xmlns:xlink="http://www.w3.org/1999/xlink" version="1.1">
<metadata>
Created by FontForge 20200511 at Mon May 11 19:06:22 2026
 By convertio
</metadata>
<defs>
<font id="gcds-icons" horiz-adv-x="1024" >
  <font-face 
    font-family="gcds-icons"
    font-weight="400"
    font-stretch="normal"
    units-per-em="1024"
    panose-1="0 0 0 0 0 0 0 0 0 0"
    ascent="960"
    descent="-64"
    bbox="0 -64 1025 960"
    underline-thickness="0"
    underline-position="0"
    unicode-range="U+000D-F013"
  />
<missing-glyph horiz-adv-x="0" 
 />
    <glyph glyph-name=".notdef" horiz-adv-x="0" 
 />
    <glyph glyph-name="glyph1" 
 />
    <glyph glyph-name="glyph1" 
 />
    <glyph glyph-name="uni000D" unicode="&#xd;" 
 />
    <glyph glyph-name="space" unicode=" " horiz-adv-x="512" 
 />
    <glyph glyph-name="uniF000" unicode="&#xf000;" 
d="M124 391h-124v114h124q11 33 35 59t56 40q33 15 69 15q37 0 70 -15q32 -14 56 -40t35 -59h579v-114h-579q-11 -33 -35 -59t-56 -40q-33 -15 -70 -15q-36 0 -69 15q-32 14 -56 40t-35 59zM341 448q0 15 -7 29q-8 12 -21 20t-29 8q-15 0 -28 -8t-21 -20q-7 -14 -7 -29
t7 -29q8 -12 21 -20t28 -8q16 0 29 8t21 20q7 14 7 29zM1024 732h-123q-12 -33 -36 -59q-24 -25 -56 -40q-33 -14 -69 -14q-37 0 -70 14q-32 15 -56 40q-24 26 -35 59h-579v114h579q11 33 35 59t56 40q33 15 70 15q36 0 69 -15q32 -14 56 -40t36 -59h123v-114zM683 789
q0 -15 7 -28q8 -13 21 -21t29 -8q15 0 28 8t21 21q7 13 7 28q0 16 -7 29q-8 13 -21 20q-13 8 -28 8q-16 0 -29 -8q-13 -7 -21 -20q-7 -13 -7 -29zM1024 50h-123q-12 -33 -36 -59t-56 -40q-33 -15 -69 -15q-37 0 -70 15q-32 14 -56 40t-35 59h-579v114h579q11 33 35 59
q24 25 56 40q33 14 70 14q36 0 69 -14q32 -15 56 -40q24 -26 36 -59h123v-114zM683 107q0 -16 7 -29q8 -13 21 -20q13 -8 29 -8q15 0 28 8q13 7 21 20q7 13 7 29q0 15 -7 28q-8 13 -21 21t-28 8q-16 0 -29 -8t-21 -21q-7 -13 -7 -28z" />
    <glyph glyph-name="uniF001" unicode="&#xf001;" 
d="M0 384h768v-128h-768v128zM0 640h512v-128h-512v128zM0 896h256v-128h-256v128zM0 128h1024v-128h-1024v128z" />
    <glyph glyph-name="uniF002" unicode="&#xf002;" 
d="M0 516q0 90 35 173q33 79 94 141q61 61 141 95q82 35 171 35q90 0 172 -35q79 -34 140 -95q61 -62 95 -141q35 -83 35 -173q0 -69 -21 -134q-20 -63 -57 -118l219 -221l-102 -107l-220 221q-56 -41 -121 -63q-68 -22 -140 -22q-89 0 -171 35q-80 33 -141 95
q-61 61 -94 141q-35 82 -35 173zM735 516q0 60 -23 115q-22 53 -63 94q-40 41 -93 63q-55 24 -115 24q-59 0 -114 -24q-53 -22 -94 -63q-40 -41 -63 -94q-23 -55 -23 -115t23 -115q23 -53 63 -94q41 -41 94 -64q55 -23 114 -23q60 0 115 23q53 23 93 64q41 41 63 94
q23 55 23 115z" />
    <glyph glyph-name="uniF003" unicode="&#xf003;" 
d="M277 956l111 -415q-32 -26 -69 -39q-40 -15 -82 -15q-9 0 -17 1q-9 0 -17 2q32 -80 84 -148t119 -120q69 -52 148 -84q-1 11 -2 17v17q0 43 14 82q14 38 40 69l415 -111q2 -8 2 -19q1 -10 1 -21q0 -48 -19 -92q-17 -42 -50 -75t-75 -50q-44 -19 -92 -19q-129 0 -249 40
q-117 39 -216 112q-99 72 -171 171q-73 99 -112 216q-40 120 -40 249q0 48 19 92q17 42 50 75t75 50q44 19 92 19q10 0 21 -1q10 -1 20 -3z" />
    <glyph glyph-name="uniF004" unicode="&#xf004;" 
d="M563 499h-102v-307h102v307zM461 704v-102h102v102h-102zM512 -64q-104 0 -199 40q-92 39 -163 110t-110 163q-40 95 -40 199t40 199q39 92 110 163t163 110q95 40 199 40t199 -40q92 -39 163 -110t110 -163q40 -95 40 -199t-40 -199q-39 -92 -110 -163t-163 -110
q-95 -40 -199 -40z" />
    <glyph glyph-name="uniF005" unicode="&#xf005;" 
d="M398 21v285l-335 479l-63 90h1024l-398 -569v-285h-228zM492 371l20 -30l294 420h-588z" />
    <glyph glyph-name="uniF006" unicode="&#xf006;" 
d="M796 50v398h114v-512h-910v910h512v-114h-398v-682h682zM626 960h398v-398h-114v203l-471 -471l-81 80l473 472h-205v114z" />
    <glyph glyph-name="uniF007" unicode="&#xf007;" 
d="M1024 -3h-1024l512 902zM462 147h100v100h-100v-100zM462 347h100v251h-100v-251z" />
    <glyph glyph-name="uniF008" unicode="&#xf008;" 
d="M563 294h-102v-102h102v102zM461 704v-307h102v307h-102zM512 -64q-104 0 -199 40q-92 39 -163 110t-110 163q-40 95 -40 199t40 199q39 92 110 163t163 110q95 40 199 40t199 -40q92 -39 163 -110t110 -163q40 -95 40 -199t-40 -199q-39 -92 -110 -163t-163 -110
q-95 -40 -199 -40z" />
    <glyph glyph-name="uniF009" unicode="&#xf009;" 
d="M102 755v-51l410 -205l410 205v51h-820zM512 397l-410 205v-461h820v461zM1024 858v-820h-1024v820h1024z" />
    <glyph glyph-name="uniF00A" unicode="&#xf00a;" 
d="M513 218l-51 51h-1l-240 241l72 72l168 -168v418h103v-419l169 169l72 -72zM103 320v-154h819v154h103v-256h-1024v256h102z" />
    <glyph glyph-name="uniF00B" unicode="&#xf00b;" 
d="M418 448l-418 418l94 94l418 -418l418 418l94 -94l-418 -418l418 -418l-94 -94l-418 418l-418 -418l-94 94z" />
    <glyph glyph-name="uniF00C" unicode="&#xf00c;" 
d="M512 512l-416 -416l-96 96l512 512l512 -512l-96 -96z" />
    <glyph glyph-name="uniF00D" unicode="&#xf00d;" 
d="M624 448l-416 416l96 96l512 -512l-512 -512l-96 96z" />
    <glyph glyph-name="uniF00E" unicode="&#xf00e;" 
d="M400 448l416 -416l-96 -96l-512 512l512 512l96 -96z" />
    <glyph glyph-name="uniF00F" unicode="&#xf00f;" 
d="M512 288l416 416l96 -96l-512 -512l-512 512l96 96z" />
    <glyph glyph-name="uniF010" unicode="&#xf010;" 
d="M759 580l-73 72l-266 -266h-1l-91 92l-72 -72l164 -165zM1023 448q0 -104 -40 -200q-39 -91 -110 -162t-162 -110q-95 -40 -199 -40t-200 40q-91 39 -162 110t-110 162q-40 96 -40 200t40 199q39 91 110 162t162 110q96 40 200 40t199 -40q91 -39 162 -110t110 -162
q40 -95 40 -199z" />
    <glyph glyph-name="uniF011" unicode="&#xf011;" 
d="M512 928l303 -303l-91 -91l-148 148v-714h-128v714l-148 -148l-91 91z" />
    <glyph glyph-name="uniF012" unicode="&#xf012;" 
d="M294 911l293 -294l-88 -88l-143 143v-692h-125v692l-143 -143l-88 88zM730 -15l-293 294l88 88l143 -143v692h125v-692l143 143l88 -88z" />
    <glyph glyph-name="uniF013" unicode="&#xf013;" 
d="M512 -32l-303 303l91 91l148 -148v714h128v-714l148 148l91 -91z" />
  </font>
</defs>
</svg>
